<svg xmlns="http://www.w3.org/2000/svg" xmlns:xlink="http://www.w3.org/1999/xlink" viewBox="0 0 60 75" version="1.1" x="0px" y="0px"><title>050 - Historical data</title><desc>Created with Sketch.</desc><g stroke="none" stroke-width="1" fill="none" fill-rule="evenodd"><g transform="translate(0.000000, -1.000000)" fill="#000000" fill-rule="nonzero"><path d="M57,31 L37.729,31 C44.1204102,27.473846 47.3149672,20.0689043 45.4943535,13.000011 C43.6737399,5.9311177 37.2995813,0.990626031 30,0.990626031 C22.7004187,0.990626031 16.3262601,5.9311177 14.5056465,13.000011 C12.6850328,20.0689043 15.8795898,27.473846 22.271,31 L3,31 C1.34314575,31 2.02906125e-16,32.3431458 0,34 L0,54 C2.02906125e-16,55.6568542 1.34314575,57 3,57 L5,57 L5,60 C5,60.5522847 5.44771525,61 6,61 L14,61 C14.5522847,61 15,60.5522847 15,60 L15,57 L45,57 L45,60 C45,60.5522847 45.4477153,61 46,61 L54,61 C54.5522847,61 55,60.5522847 55,60 L55,57 L57,57 C58.6568542,57 60,55.6568542 60,54 L60,34 C60,32.3431458 58.6568542,31 57,31 Z M16,17 C16,9.2680135 22.2680135,3 30,3 C37.7319865,3 44,9.2680135 44,17 C44,24.7319865 37.7319865,31 30,31 C22.2714405,30.9917327 16.0082673,24.7285595 16,17 Z M13,59 L7,59 L7,57 L13,57 L13,59 Z M53,59 L47,59 L47,57 L53,57 L53,59 Z M58,54 C58,54.5522847 57.5522847,55 57,55 L3,55 C2.44771525,55 2,54.5522847 2,54 L2,34 C2,33.4477153 2.44771525,33 3,33 L57,33 C57.5522847,33 58,33.4477153 58,34 L58,54 Z"/><path d="M11,51 L6,51 L6,37 L11,37 C11.5522847,37 12,36.5522847 12,36 C12,35.4477153 11.5522847,35 11,35 L6,35 C4.8954305,35 4,35.8954305 4,37 L4,51 C4,52.1045695 4.8954305,53 6,53 L11,53 C11.5522847,53 12,52.5522847 12,52 C12,51.4477153 11.5522847,51 11,51 Z"/><path d="M54,35 L19,35 C18.4477153,35 18,35.4477153 18,36 C18,36.5522847 18.4477153,37 19,37 L54,37 L54,51 L19,51 C18.4477153,51 18,51.4477153 18,52 C18,52.5522847 18.4477153,53 19,53 L54,53 C55.1045695,53 56,52.1045695 56,51 L56,37 C56,35.8954305 55.1045695,35 54,35 Z"/><path d="M17.753,48.167 L18.535,48.949 C18.9273789,49.3279722 19.5510848,49.3225524 19.9368186,48.9368186 C20.3225524,48.5510848 20.3279722,47.9273789 19.949,47.535 L19.167,46.753 C19.5219971,46.2213517 19.7708947,45.6261027 19.9,45 L21,45 C21.5522847,45 22,44.5522847 22,44 C22,43.4477153 21.5522847,43 21,43 L19.9,43 C19.7712007,42.3739692 19.5226445,41.7787247 19.168,41.247 L19.95,40.465 C20.3289722,40.0726211 20.3235524,39.4489152 19.9378186,39.0631814 C19.5520848,38.6774476 18.9283789,38.6720278 18.536,39.051 L17.754,39.833 C17.2220503,39.4778848 16.6264509,39.2289827 16,39.1 L16,38 C16,37.4477153 15.5522847,37 15,37 C14.4477153,37 14,37.4477153 14,38 L14,39.1 C13.3739692,39.2287993 12.7787247,39.4773555 12.247,39.832 L11.465,39.05 C11.2139255,38.7900434 10.8421221,38.6857874 10.4924927,38.7773028 C10.1428632,38.8688183 9.86981828,39.1418632 9.77830284,39.4914927 C9.6867874,39.8411221 9.79104342,40.2129255 10.051,40.464 L10.833,41.246 C10.4778848,41.7779497 10.2289827,42.3735491 10.1,43 L9,43 C8.44771525,43 8,43.4477153 8,44 C8,44.5522847 8.44771525,45 9,45 L10.1,45 C10.2287993,45.6260308 10.4773555,46.2212753 10.832,46.753 L10.05,47.535 C9.79004342,47.7860745 9.6857874,48.1578779 9.77730284,48.5075073 C9.86881828,48.8571368 10.1418632,49.1301817 10.4914927,49.2216972 C10.8411221,49.3132126 11.2129255,49.2089566 11.464,48.949 L12.246,48.167 C12.7779497,48.5221152 13.3735491,48.7710173 14,48.9 L14,50 C14,50.5522847 14.4477153,51 15,51 C15.5522847,51 16,50.5522847 16,50 L16,48.9 C16.6261027,48.7708947 17.2213517,48.5219971 17.753,48.167 Z M12,44 C12,42.3431458 13.3431458,41 15,41 C16.6568542,41 18,42.3431458 18,44 C18,45.6568542 16.6568542,47 15,47 C13.3431458,47 12,45.6568542 12,44 Z"/><path d="M34,41 L37,41 C37.5522847,41 38,40.5522847 38,40 C38,39.4477153 37.5522847,39 37,39 L34,39 C33.4477153,39 33,39.4477153 33,40 C33,40.5522847 33.4477153,41 34,41 Z"/><path d="M34,45 L37,45 C37.5522847,45 38,44.5522847 38,44 C38,43.4477153 37.5522847,43 37,43 L34,43 C33.4477153,43 33,43.4477153 33,44 C33,44.5522847 33.4477153,45 34,45 Z"/><path d="M34,49 L37,49 C37.5522847,49 38,48.5522847 38,48 C38,47.4477153 37.5522847,47 37,47 L34,47 C33.4477153,47 33,47.4477153 33,48 C33,48.5522847 33.4477153,49 34,49 Z"/><path d="M41,41 L44,41 C44.5522847,41 45,40.5522847 45,40 C45,39.4477153 44.5522847,39 44,39 L41,39 C40.4477153,39 40,39.4477153 40,40 C40,40.5522847 40.4477153,41 41,41 Z"/><path d="M41,45 L44,45 C44.5522847,45 45,44.5522847 45,44 C45,43.4477153 44.5522847,43 44,43 L41,43 C40.4477153,43 40,43.4477153 40,44 C40,44.5522847 40.4477153,45 41,45 Z"/><path d="M41,49 L44,49 C44.5522847,49 45,48.5522847 45,48 C45,47.4477153 44.5522847,47 44,47 L41,47 C40.4477153,47 40,47.4477153 40,48 C40,48.5522847 40.4477153,49 41,49 Z"/><path d="M48,41 L51,41 C51.5522847,41 52,40.5522847 52,40 C52,39.4477153 51.5522847,39 51,39 L48,39 C47.4477153,39 47,39.4477153 47,40 C47,40.5522847 47.4477153,41 48,41 Z"/><path d="M48,45 L51,45 C51.5522847,45 52,44.5522847 52,44 C52,43.4477153 51.5522847,43 51,43 L48,43 C47.4477153,43 47,43.4477153 47,44 C47,44.5522847 47.4477153,45 48,45 Z"/><path d="M48,49 L51,49 C51.5522847,49 52,48.5522847 52,48 C52,47.4477153 51.5522847,47 51,47 L48,47 C47.4477153,47 47,47.4477153 47,48 C47,48.5522847 47.4477153,49 48,49 Z"/><path d="M31,16.586 L31,10 C31,9.44771525 30.5522847,9 30,9 C29.4477153,9 29,9.44771525 29,10 L29,17 C29.0000566,17.2651948 29.1054506,17.5195073 29.293,17.707 L34.293,22.707 C34.6853789,23.0859722 35.3090848,23.0805524 35.6948186,22.6948186 C36.0805524,22.3090848 36.0859722,21.6853789 35.707,21.293 L31,16.586 Z"/><path d="M29,7 L31,7 C31.5522847,7 32,6.55228475 32,6 C32,5.44771525 31.5522847,5 31,5 L29,5 C28.4477153,5 28,5.44771525 28,6 C28,6.55228475 28.4477153,7 29,7 Z"/><path d="M31,27 L29,27 C28.4477153,27 28,27.4477153 28,28 C28,28.5522847 28.4477153,29 29,29 L31,29 C31.5522847,29 32,28.5522847 32,28 C32,27.4477153 31.5522847,27 31,27 Z"/><path d="M22.222,7.808 L20.808,9.222 C20.5480434,9.47307447 20.4437874,9.84487789 20.5353028,10.1945073 C20.6268183,10.5441368 20.8998632,10.8171817 21.2494927,10.9086972 C21.5991221,11.0002126 21.9709255,10.8959566 22.222,10.636 L23.636,9.222 C23.8959566,8.97092553 24.0002126,8.59912211 23.9086972,8.24949268 C23.8171817,7.89986324 23.5441368,7.62681828 23.1945073,7.53530284 C22.8448779,7.4437874 22.4730745,7.54804342 22.222,7.808 Z"/><path d="M37.778,23.364 L36.364,24.778 C36.1040434,25.0290745 35.9997874,25.4008779 36.0913028,25.7505073 C36.1828183,26.1001368 36.4558632,26.3731817 36.8054927,26.4646972 C37.1551221,26.5562126 37.5269255,26.4519566 37.778,26.192 L39.192,24.778 C39.4519566,24.5269255 39.5562126,24.1551221 39.4646972,23.8054927 C39.3731817,23.4558632 39.1001368,23.1828183 38.7505073,23.0913028 C38.4008779,22.9997874 38.0290745,23.1040434 37.778,23.364 Z"/><path d="M19,16 C18.4477153,16 18,16.4477153 18,17 L18,19 C18,19.5522847 18.4477153,20 19,20 C19.5522847,20 20,19.5522847 20,19 L20,17 C20,16.4477153 19.5522847,16 19,16 Z"/><path d="M41,19 C41.5522847,19 42,18.5522847 42,18 L42,16 C42,15.4477153 41.5522847,15 41,15 C40.4477153,15 40,15.4477153 40,16 L40,18 C40,18.5522847 40.4477153,19 41,19 Z"/><path d="M22.222,23.364 C21.9709255,23.1040434 21.5991221,22.9997874 21.2494927,23.0913028 C20.8998632,23.1828183 20.6268183,23.4558632 20.5353028,23.8054927 C20.4437874,24.1551221 20.5480434,24.5269255 20.808,24.778 L22.222,26.192 C22.4730745,26.4519566 22.8448779,26.5562126 23.1945073,26.4646972 C23.5441368,26.3731817 23.8171817,26.1001368 23.9086972,25.7505073 C24.0002126,25.4008779 23.8959566,25.0290745 23.636,24.778 L22.222,23.364 Z"/><path d="M37.778,7.808 C37.3856211,7.42902779 36.7619152,7.43444763 36.3761814,7.82018142 C35.9904476,8.20591522 35.9850278,8.82962111 36.364,9.222 L37.778,10.636 C38.1703789,11.0149722 38.7940848,11.0095524 39.1798186,10.6238186 C39.5655524,10.2380848 39.5709722,9.61437889 39.192,9.222 L37.778,7.808 Z"/></g></g></svg>