<svg xmlns="http://www.w3.org/2000/svg" xmlns:xlink="http://www.w3.org/1999/xlink" version="1.1" x="0px" y="0px" viewBox="0 0 512 640" style="enable-background:new 0 0 512 512;" xml:space="preserve"><g><g><g><path d="M416,205.7c-8.3,0-13.5-6.7-14.4-13.3c-0.8-6.4,2.2-13.9,10.9-16.2l23.7-6.3c1.4-0.4,2.9-0.6,4.3-0.6     c8.3,0,13.5,6.7,14.4,13.3c0.9,6.4-2.2,13.9-10.9,16.3l-23.7,6.3C418.8,205.6,417.4,205.7,416,205.7z M440.5,177.3     c-0.7,0-1.4,0.1-2.2,0.3l-23.7,6.3c-5.4,1.5-5.2,6.1-5.1,7.5c0.4,3.1,2.6,6.3,6.5,6.3c0.7,0,1.4-0.1,2.2-0.3l23.7-6.3     c5.4-1.5,5.2-6.1,5.1-7.5C446.6,180.6,444.4,177.3,440.5,177.3z"/></g><g><path d="M416.4,239.6c-6.8,0-12.7-4.6-14.5-11.1c-2.1-8,2.6-16.2,10.6-18.4l67.2-18c1.3-0.3,2.6-0.5,3.9-0.5     c6.8,0,12.7,4.6,14.5,11.1c2.1,7.9-2.6,16.1-10.6,18.4l-67.2,18C419,239.5,417.7,239.6,416.4,239.6z M483.6,199.7     c-0.6,0-1.2,0.1-1.8,0.2l-67.2,18c-3.7,1-5.9,4.8-4.9,8.6c0.8,3,3.6,5.2,6.8,5.2c0.6,0,1.2-0.1,1.8-0.2l67.2-18     c3.7-1,5.9-4.9,4.9-8.6C489.5,201.8,486.8,199.7,483.6,199.7z"/></g><g><path d="M416.4,273.6c-6.8,0-12.7-4.6-14.5-11.1c-2.1-8,2.6-16.2,10.6-18.4l67.2-18c1.3-0.3,2.6-0.5,3.9-0.5     c6.8,0,12.7,4.6,14.5,11.1c2.1,8-2.6,16.2-10.6,18.4l-67.2,18C419,273.4,417.7,273.6,416.4,273.6z M483.6,233.6     c-0.6,0-1.2,0.1-1.8,0.2l-67.2,18c-3.7,1-5.9,4.8-4.9,8.6c0.8,3,3.6,5.2,6.8,5.2c0.6,0,1.2-0.1,1.8-0.2l67.2-18     c3.7-1,5.9-4.9,4.9-8.6C489.5,235.8,486.8,233.6,483.6,233.6z"/></g><g><path d="M416.4,307.5c-6.8,0-12.7-4.6-14.5-11.1c-2.1-8,2.6-16.2,10.6-18.4l67.2-18c1.3-0.3,2.6-0.5,3.9-0.5     c6.8,0,12.7,4.6,14.5,11.1c2.1,8-2.6,16.2-10.6,18.4l-67.2,18C419,307.4,417.7,307.5,416.4,307.5z M483.6,267.6     c-0.6,0-1.2,0.1-1.8,0.2l-67.2,18c-3.7,1-5.9,4.8-4.9,8.6c0.8,3,3.6,5.2,6.8,5.2c0.6,0,1.2-0.1,1.8-0.2l67.2-18     c3.7-1,5.9-4.8,4.9-8.6C489.5,269.7,486.8,267.6,483.6,267.6z"/></g><g><path d="M484.6,327.3h-69.3c-2.2,0-4-1.8-4-4v-19.8c0-1.1,0.5-2.2,1.3-2.9c0.8-0.8,1.9-1.1,3-1.1c0.9,0.1,1.7,0,2.6-0.2l10-2.7     l55.3-14.8c1.2-0.3,2.5-0.1,3.5,0.7s1.6,1.9,1.6,3.2v37.6C488.6,325.5,486.8,327.3,484.6,327.3z M419.4,319.3h61.3v-28.4     L420.3,307c-0.3,0.1-0.6,0.1-0.9,0.2V319.3z"/></g><g><path d="M484.8,387.1h-69.6c-8.3,0-15-6.7-15-15s6.7-15,15-15h0.5V350h-0.5c-8.3,0-15-6.7-15-15c0-8.3,6.7-15,15-15h69.6     c8.3,0,15,6.7,15,15s-6.7,15-15,15h-0.5v7.1h0.5c8.3,0,15,6.7,15,15S493.1,387.1,484.8,387.1z M415.2,365.1c-3.9,0-7,3.1-7,7     s3.1,7,7,7h69.6c3.8,0,7-3.1,7-7s-3.1-7-7-7h-4.5c-2.2,0-4-1.8-4-4V346c0-2.2,1.8-4,4-4h4.5c3.8,0,7-3.1,7-7c0-3.9-3.1-7-7-7     h-69.6c-3.9,0-7,3.1-7,7s3.1,7,7,7h4.5c2.2,0,4,1.8,4,4v15.1c0,2.2-1.8,4-4,4H415.2z"/></g><g><path d="M450,409.8c-14.4,0-28.9-5-28.9-16v-10.6c0-2.2,1.8-4,4-4h49.8c2.2,0,4,1.8,4,4v10.6C478.9,404.8,464.4,409.8,450,409.8z      M429.1,387.1v6.6c0,4.4,9.4,8,20.9,8s20.9-3.6,20.9-8v-6.6H429.1z"/></g><g><path d="M457.6,350h-37.9c-2.2,0-4-1.8-4-4s1.8-4,4-4h37.9c2.2,0,4,1.8,4,4S459.8,350,457.6,350z"/></g><g><path d="M480.3,365.1h-37.9c-2.2,0-4-1.8-4-4s1.8-4,4-4h37.9c2.2,0,4,1.8,4,4S482.5,365.1,480.3,365.1z"/></g><g><path d="M426.8,365.1h-7.1c-2.2,0-4-1.8-4-4s1.8-4,4-4h7.1c2.2,0,4,1.8,4,4S429,365.1,426.8,365.1z"/></g><g><path d="M480.3,350h-7.1c-2.2,0-4-1.8-4-4s1.8-4,4-4h7.1c2.2,0,4,1.8,4,4S482.5,350,480.3,350z"/></g><g><path d="M429.3,315.1c-2.2,0-4-1.8-4-4v-10.6c0-2.2,1.8-4,4-4s4,1.8,4,4v10.6C433.3,313.3,431.5,315.1,429.3,315.1z"/></g><g><path d="M474.5,316.2c-2.2,0-4-1.8-4-4v-22.5c0-2.2,1.8-4,4-4s4,1.8,4,4v22.5C478.5,314.4,476.7,316.2,474.5,316.2z"/></g><g><path d="M240.3,452.2h-94.4c-2.2,0-4-1.8-4-4s1.8-4,4-4h90.4V317.7c0-2.2,1.8-4,4-4h31.1l-44.1-24.2c-1.3-0.7-2.1-2-2.1-3.5     v-37.3h-20.8v21.5c0,1.4-0.7,2.7-2,3.4s-2.7,0.7-4,0.1L151.9,248L32.5,313.7h31.1c2.2,0,4,1.8,4,4v126.5h55.8c2.2,0,4,1.8,4,4     s-1.8,4-4,4H63.6c-2.2,0-4-1.8-4-4V321.7H16.9c-1.8,0-3.4-1.2-3.9-3c-0.5-1.8,0.3-3.6,1.9-4.5L150,240c1.2-0.7,2.7-0.7,3.9,0     l42.5,23.4v-18.7c0-2.2,1.8-4,4-4h28.8c2.2,0,4,1.8,4,4v38.9l55.7,30.6c1.6,0.9,2.4,2.7,1.9,4.5c-0.5,1.8-2,3-3.9,3h-42.7v126.5     C244.3,450.4,242.5,452.2,240.3,452.2z"/></g><g><path d="M104.4,493.8c-0.8,0-1.6-0.2-2.3-0.7c-1.6-1.1-2.2-3.2-1.4-4.9l29.5-64.9h-27.6c-1.3,0-2.5-0.6-3.3-1.7     c-0.7-1.1-0.9-2.5-0.4-3.7l26.8-70.9c0.6-1.6,2.1-2.6,3.7-2.6h46.1c1.4,0,2.7,0.7,3.4,1.9c0.7,1.2,0.8,2.6,0.2,3.9l-16.3,33     l38.8,5.6c1.5,0.2,2.7,1.3,3.2,2.7c0.5,1.4,0.1,3-1,4.1l-96.8,97.1C106.5,493.4,105.5,493.8,104.4,493.8z M108.5,415.3h28.1     c1.4,0,2.6,0.7,3.4,1.8c0.7,1.1,0.8,2.6,0.3,3.8l-22.9,50.3l75.5-75.7l-36.4-5.3c-1.3-0.2-2.4-1-3-2.1s-0.6-2.5,0-3.6l15.9-32.2     h-36.9L108.5,415.3z"/></g><g><path d="M390.2,452.2H145.9c-2.2,0-4-1.8-4-4s1.8-4,4-4h244.3c2.2,0,4,1.8,4,4S392.4,452.2,390.2,452.2z M106.3,452.2H32.7     c-2.2,0-4-1.8-4-4s1.8-4,4-4h73.5c2.2,0,4,1.8,4,4S108.5,452.2,106.3,452.2z"/></g><g><path d="M365.5,264.9c-0.2,0-0.4,0-0.7-0.1c-2.2-0.4-3.7-2.4-3.3-4.6c5.4-33.2-1.8-66.8-20.3-94.8c-1.2-1.8-0.7-4.3,1.1-5.5     c1.8-1.2,4.3-0.7,5.5,1.1c19.7,29.7,27.3,65.3,21.6,100.5C369.1,263.5,367.4,264.9,365.5,264.9z M99.7,207.9c-0.3,0-0.7,0-1-0.1     c-2.1-0.6-3.4-2.8-2.8-4.9C115,131.6,185.1,87,255.7,101.2c2.2,0.4,3.6,2.5,3.1,4.7c-0.4,2.2-2.5,3.6-4.7,3.1     c-66.4-13.4-132.5,28.8-150.5,95.9C103.1,206.7,101.5,207.9,99.7,207.9z"/></g><g><path d="M341.6,272.7c-0.3,0-0.7,0-1-0.1c-2.1-0.6-3.4-2.8-2.8-4.9c11.2-41.7-3.1-86.4-36.4-113.8c-1.7-1.4-2-3.9-0.5-5.6     c1.4-1.7,3.9-2,5.6-0.5c35.7,29.4,51,77.3,39.1,122C345,271.5,343.4,272.7,341.6,272.7z M118.1,259.6c-2,0-3.7-1.4-4-3.4     c-2.4-16-1.4-32,2.7-47.7c0.6-2.1,2.8-3.4,4.9-2.8s3.4,2.8,2.8,4.9c-3.9,14.6-4.7,29.6-2.5,44.5c0.3,2.2-1.2,4.2-3.4,4.5     C118.5,259.6,118.3,259.6,118.1,259.6z M167.6,148.1c-1.3,0-2.6-0.6-3.3-1.8c-1.2-1.8-0.7-4.3,1.1-5.5c24-16.1,52.9-22.8,81.4-19     c2.2,0.3,3.7,2.3,3.4,4.5s-2.3,3.7-4.5,3.4c-26.6-3.6-53.5,2.7-75.9,17.7C169.1,147.9,168.3,148.1,167.6,148.1z"/></g><g><path d="M367.9,35.8c-2.2,0-4-1.8-4-4v-8.9c0-2.2,1.8-4,4-4s4,1.8,4,4v8.9C371.9,34,370.1,35.8,367.9,35.8z"/></g><g><path d="M390,41.7c-0.7,0-1.4-0.2-2-0.5c-1.9-1.1-2.6-3.6-1.4-5.5L391,28c1.1-1.9,3.6-2.6,5.5-1.4c1.9,1.1,2.6,3.6,1.4,5.5     l-4.4,7.7C392.7,40.9,391.4,41.7,390,41.7z"/></g><g><path d="M406.2,57.9c-1.4,0-2.7-0.7-3.5-2c-1.1-1.9-0.5-4.4,1.5-5.5l7.7-4.4c1.9-1.1,4.4-0.4,5.5,1.5c1.1,1.9,0.5,4.4-1.5,5.5     l-7.7,4.4C407.6,57.7,406.9,57.9,406.2,57.9z"/></g><g><path d="M421,80h-8.9c-2.2,0-4-1.8-4-4s1.8-4,4-4h8.9c2.2,0,4,1.8,4,4S423.2,80,421,80z"/></g><g><path d="M413.9,106.6c-0.7,0-1.4-0.2-2-0.5l-7.7-4.5c-1.9-1.1-2.6-3.6-1.4-5.5c1.1-1.9,3.6-2.6,5.5-1.4l7.7,4.5     c1.9,1.1,2.6,3.6,1.4,5.5C416.6,105.9,415.3,106.6,413.9,106.6z"/></g><g><path d="M394.4,126.1c-1.4,0-2.7-0.7-3.5-2l-4.4-7.7c-1.1-1.9-0.4-4.4,1.5-5.5c1.9-1.1,4.4-0.4,5.5,1.5l4.4,7.7     c1.1,1.9,0.4,4.4-1.5,5.5C395.8,125.9,395.1,126.1,394.4,126.1z"/></g><g><path d="M367.9,133.2c-2.2,0-4-1.8-4-4v-8.9c0-2.2,1.8-4,4-4s4,1.8,4,4v8.9C371.9,131.4,370.1,133.2,367.9,133.2z"/></g><g><path d="M341.3,126.1c-0.7,0-1.4-0.2-2-0.5c-1.9-1.1-2.6-3.5-1.5-5.5l4.4-7.7c1.1-1.9,3.5-2.6,5.5-1.5c1.9,1.1,2.6,3.5,1.5,5.5     l-4.4,7.7C344.1,125.3,342.7,126.1,341.3,126.1z"/></g><g><path d="M321.9,106.6c-1.4,0-2.7-0.7-3.5-2c-1.1-1.9-0.4-4.4,1.5-5.5l7.7-4.4c1.9-1.1,4.4-0.4,5.5,1.5c1.1,1.9,0.4,4.4-1.5,5.5     l-7.7,4.4C323.2,106.4,322.6,106.6,321.9,106.6z"/></g><g><path d="M323.6,80h-8.9c-2.2,0-4-1.8-4-4s1.8-4,4-4h8.9c2.2,0,4,1.8,4,4S325.8,80,323.6,80z"/></g><g><path d="M329.5,57.9c-0.7,0-1.4-0.2-2-0.5l-7.7-4.4c-1.9-1.1-2.6-3.6-1.5-5.5c1.1-1.9,3.6-2.6,5.5-1.5l7.7,4.4     c1.9,1.1,2.6,3.6,1.5,5.5C332.3,57.2,330.9,57.9,329.5,57.9z"/></g><g><path d="M345.8,41.7c-1.4,0-2.7-0.7-3.5-2l-4.4-7.7c-1.1-1.9-0.4-4.4,1.5-5.5c1.9-1.1,4.4-0.4,5.5,1.5l4.4,7.7     c1.1,1.9,0.4,4.4-1.5,5.5C347.1,41.5,346.4,41.7,345.8,41.7z"/></g><g><path d="M367.9,113.1c-20.5,0-37.1-16.7-37.1-37.1c0-20.4,16.6-37.1,37.1-37.1S405,55.6,405,76C405,96.5,388.3,113.1,367.9,113.1     z M367.9,46.9c-16,0-29.1,13-29.1,29.1c0,16.1,13.1,29.1,29.1,29.1S397,92.1,397,76C397,60,383.9,46.9,367.9,46.9z"/></g><g><path d="M452.1,493.1H150.1c-2.2,0-4-1.8-4-4v-28.6c0-2.2,1.8-4,4-4s4,1.8,4,4v24.6h294.1V407c0-2.2,1.8-4,4-4s4,1.8,4,4v82.1     C456.1,491.3,454.3,493.1,452.1,493.1z"/></g></g></g><text x="0" y="527" fill="#000000" font-size="5px" font-weight="bold" font-family="'Helvetica Neue', Helvetica, Arial-Unicode, Arial, Sans-serif">Created by ibrandify</text><text x="0" y="532" fill="#000000" font-size="5px" font-weight="bold" font-family="'Helvetica Neue', Helvetica, Arial-Unicode, Arial, Sans-serif">from the Noun Project</text></svg>