<svg width="203" height="80" viewBox="0 0 203 80" version="1.1" xmlns="http://www.w3.org/2000/svg" xmlns:xlink="http://www.w3.org/1999/xlink">
<title>ocean wise</title>
<desc>Created using Figma</desc>
<g id="Canvas" transform="translate(-546 172)">
<g id="logo/ocean wise">
<g id="OW-logo">
<g id="Fill 1">
<use xlink:href="#path0_fill" transform="translate(546.298 -112.12)" fill="#005EB8"/>
</g>
<g id="Fill 2">
<use xlink:href="#path1_fill" transform="translate(567.165 -112.12)" fill="#005EB8"/>
</g>
<g id="Fill 3">
<use xlink:href="#path2_fill" transform="translate(587.285 -112.12)" fill="#005EB8"/>
</g>
<g id="Fill 4">
<use xlink:href="#path3_fill" transform="translate(608.2 -112.12)" fill="#005EB8"/>
</g>
<g id="Fill 5">
<use xlink:href="#path4_fill" transform="translate(630.337 -112.12)" fill="#005EB8"/>
</g>
<g id="Fill 6">
<use xlink:href="#path5_fill" transform="translate(658.87 -111.622)" fill="#005EB8"/>
</g>
<g id="Fill 7">
<use xlink:href="#path6_fill" transform="translate(688.625 -111.622)" fill="#005EB8"/>
</g>
<g id="Fill 8">
<use xlink:href="#path7_fill" transform="translate(695.576 -112.077)" fill="#005EB8"/>
</g>
<g id="Fill 9">
<use xlink:href="#path8_fill" transform="translate(713.895 -112.077)" fill="#005EB8"/>
</g>
<g id="Fill 10">
<use xlink:href="#path9_fill" transform="translate(735.446 -97.7582)" fill="#005EB8"/>
</g>
<g id="Fill 11">
<use xlink:href="#path10_fill" transform="translate(704.53 -141.099)" fill="#005EB8"/>
</g>
<g id="Fill 12">
<use xlink:href="#path11_fill" transform="translate(726.716 -150.085)" fill="#005EB8"/>
</g>
<g id="Fill 13">
<use xlink:href="#path12_fill" transform="translate(705.394 -161.959)" fill="#005EB8"/>
</g>
<g id="Fill 14">
<use xlink:href="#path13_fill" transform="translate(726.286 -171.69)" fill="#005EB8"/>
</g>
</g>
</g>
</g>
<defs>
<path id="path0_fill" fill-rule="evenodd" d="M 9.58992 16.0888C 6.5275 16.0888 4.034 13.3771 4.034 10.0445C 4.034 6.63418 6.5275 3.85963 9.58992 3.85963C 12.6725 3.85963 15.1789 6.63418 15.1789 10.0445C 15.1789 13.3771 12.6725 16.0888 9.58992 16.0888ZM 9.5899 0C 4.21194 0 0 4.41245 0 10.0445C 0 15.6185 4.21194 19.9839 9.5899 19.9839C 14.9679 19.9839 19.1798 15.6185 19.1798 10.0445C 19.1798 4.41245 14.9679 0 9.5899 0Z"/>
<path id="path1_fill" fill-rule="evenodd" d="M 18.4482 13.5683L 18.6673 12.8995L 14.4593 12.8995L 14.3176 13.1818C 13.3928 15.0283 11.6566 16.0888 9.55125 16.0888C 6.49205 16.0888 4.00056 13.3614 4.00056 10.0086C 4.00056 6.61807 6.49205 3.85964 9.55125 3.85964C 11.6248 3.85964 13.3634 4.92178 14.3212 6.77309L 14.463 7.0497L 18.6737 7.0497L 18.4482 6.3765C 17.1248 2.44398 13.7161 0 9.55125 0C 4.28643 0 0 4.49056 0 10.0086C 0 15.4905 4.28643 19.9492 9.55125 19.9492C 13.7519 19.9492 17.161 17.5053 18.4482 13.5683Z"/>
<path id="path2_fill" fill-rule="evenodd" d="M 9.59073 3.71912C 11.8555 3.71912 13.8856 5.28858 14.7199 7.60693L 4.3855 7.60693C 5.30994 5.05062 7.62991 3.71912 9.59073 3.71912ZM 9.76465 19.9492C 14.1578 19.9492 17.4404 17.6236 18.7655 13.5683L 18.9853 12.8995L 14.8024 12.8995L 14.6647 13.1939C 13.7378 15.1793 12.0423 16.2285 9.76465 16.2285C 7.33234 16.2285 4.69631 14.5358 4.11048 11.291L 19.2068 11.291L 19.2108 10.7837C 19.2297 7.61379 18.1495 4.77039 16.1681 2.77615C 14.3885 0.98484 12.0504 0 9.59071 0C 4.30213 0 0 4.49056 0 10.0086C 0 15.5823 4.29005 19.9492 9.76465 19.9492Z"/>
<path id="path3_fill" fill-rule="evenodd" d="M 9.58987 3.75455C 12.6185 3.75455 15.1796 6.61929 15.1796 10.0086C 15.1796 13.4197 12.6724 16.1951 9.58987 16.1951C 6.45699 16.1951 4.00214 13.4777 4.00214 10.0086C 4.00214 6.5605 6.50812 3.75455 9.58987 3.75455ZM 9.5899 0C 4.21275 0 0 4.39635 0 10.0086C 0 15.6024 4.17973 19.9839 9.51864 19.9839C 11.6623 19.9839 13.7185 19.1114 15.2445 17.5979L 15.2445 19.5285L 19.1432 19.5285L 19.1432 10.0086C 19.1432 4.39635 14.9461 0 9.5899 0Z"/>
<path id="path4_fill" fill-rule="evenodd" d="M 3.96271 7.94152C 3.96271 5.45728 5.60424 3.78837 8.04581 3.78837C 10.4676 3.78837 12.0943 5.45728 12.0943 7.94152L 12.0943 19.5285L 16.0594 19.5285L 16.0594 8.04701C 16.0594 3.30883 12.7651 0 8.04581 0C 3.30843 0 0 3.30883 0 8.04701L 0 19.5285L 3.96271 19.5285L 3.96271 7.94152Z"/>
<path id="path5_fill" fill-rule="evenodd" d="M 21.6645 12.0774C 21.6645 14.1831 20.2895 15.6 18.2445 15.6C 16.2023 15.6 14.8318 14.1831 14.8318 12.0774L 14.8318 4.12497L 10.8312 4.12497L 10.8312 12.0774C 10.8312 14.1831 9.45825 15.6 7.41408 15.6C 5.37152 15.6 4.00177 14.1831 4.00177 12.0774L 4.00177 0L 0 0L 0 12.0774C 0 16.3743 3.11718 19.493 7.41408 19.493C 9.70305 19.493 11.5934 18.5903 12.8166 16.9323C 14.0668 18.5903 15.966 19.493 18.2445 19.493C 22.5446 19.493 25.6646 16.3743 25.6646 12.0774L 25.6646 0L 21.6645 0L 21.6645 12.0774Z"/>
<path id="path6_fill" fill-rule="evenodd" d="M 0 19.0731L 4.00015 19.0731L 4.00015 0L 0 0L 0 19.0731Z"/>
<path id="path7_fill" fill-rule="evenodd" d="M 8.82692 7.57674C 5.1078 6.98769 4.70154 6.55244 4.70154 5.76731C 4.70154 4.63873 6.27986 3.75334 8.29383 3.75334C 10.3907 3.75334 11.7915 4.66812 12.1406 6.26174L 12.2276 6.66357L 16.2221 6.66357L 16.1609 6.09747C 15.7502 2.33688 12.7357 0 8.29383 0C 3.07773 0 0.702997 3.04511 0.702997 5.8724C 0.702997 10.0348 4.39756 10.9162 8.18673 11.4601C 12.6564 12.0641 12.6564 12.9652 12.6564 13.7604C 12.6564 14.9695 11.2769 16.1935 8.64332 16.1935C 6.21262 16.1935 4.42936 15.0234 4.09759 13.212L 4.02069 12.7936L 0 12.7936L 0.0732792 13.3686C 0.591065 17.3865 3.95506 19.9827 8.64332 19.9827C 13.371 19.9827 16.5498 17.4114 16.5498 13.584C 16.5498 8.79591 12.267 8.11949 8.82692 7.57674Z"/>
<path id="path8_fill" fill-rule="evenodd" d="M 9.58752 3.71831C 11.8547 3.71831 13.8872 5.28616 14.7187 7.60654L 4.38751 7.60654C 5.30874 5.05062 7.6267 3.71831 9.58752 3.71831ZM 19.2132 10.7829C 19.2285 7.61137 18.1475 4.76677 16.1645 2.77293C 14.3849 0.984437 12.0504 0 9.58749 0C 4.30133 0 0 4.48935 0 10.0082C 0 15.5819 4.28764 19.948 9.76304 19.948C 14.1586 19.948 17.4392 17.6212 18.7627 13.5663L 18.9817 12.8979L 14.8016 12.8979L 14.6639 13.1927C 13.7402 15.1784 12.0436 16.2281 9.76304 16.2281C 7.33235 16.2281 4.69671 14.5346 4.10927 11.2906L 19.2108 11.2906L 19.2132 10.7829Z"/>
<path id="path9_fill" fill-rule="evenodd" d="M 3.13733 2.68436C 3.35999 2.68436 3.58264 2.56961 3.58264 2.24589C 3.58264 1.92257 3.40991 1.80742 3.13733 1.80742L 2.29663 1.80742L 2.29663 2.68436L 3.13733 2.68436ZM 4.12903 4.17892L 3.51058 4.17892L 2.9936 3.1808L 2.29664 3.1808L 2.29664 4.17168L 1.75751 4.17168L 1.75751 1.31178L 3.13009 1.31178C 3.73364 1.31178 4.11413 1.67858 4.11413 2.24589C 4.11413 2.65577 3.87738 2.98633 3.51823 3.11557L 4.12903 4.17892ZM 2.81361 0.520607C 1.57028 0.520607 0.559265 1.54692 0.559265 2.80635C 0.559265 4.07344 1.57028 5.09934 2.81361 5.09934C 4.05775 5.09934 5.06836 4.07344 5.06836 2.80635C 5.06836 1.54692 4.05775 0.520607 2.81361 0.520607ZM 2.81359 5.62035C 1.25943 5.62035 0 4.36092 0 2.80635C 0 1.25903 1.25943 0 2.81359 0C 4.36856 0 5.62799 1.25903 5.62799 2.80635C 5.62799 4.36092 4.36856 5.62035 2.81359 5.62035Z"/>
<path id="path10_fill" fill-rule="evenodd" d="M 0.000841094 0.851815C -0.000769437 0.0376921 0.588685 -0.49338 1.14835 0.689152C 1.68747 1.8596 2.31155 3.71494 3.1752 3.95168C 3.90799 4.153 4.37263 3.90015 4.98906 3.1279C 5.67032 2.27311 6.31453 1.28465 6.88466 1.492C 7.42378 1.68607 7.21522 2.92658 7.04853 4.16266C 6.9064 5.27031 6.85526 6.2942 7.40969 6.96015C 8.08531 7.77468 10.0735 7.63859 11.8809 7.59027C 14.4984 7.51176 17.0628 7.38976 17.2806 8.24254C 17.5013 9.12471 15.323 10.0504 13.2269 11.1238C 11.7903 11.8546 10.6976 12.6026 10.2148 13.5094C 9.47439 14.9013 10.6718 16.7892 11.5922 18.5165C 12.5098 20.2269 11.7126 20.8184 10.6541 20.154C 3.85364 15.8934 -0.065996 8.95641 0.000841094 0.851815Z"/>
<path id="path11_fill" fill-rule="evenodd" d="M 10.9971 0C 4.55337 0 0.284661 5.24469 0 9.55608C 0 9.5585 0 9.55004 0 9.55608C 0 9.55608 0.725141 9.55004 1.437 8.30107C 3.26173 5.07961 6.98648 3.57699 10.6279 4.18577C 14.8499 4.90406 16.7676 8.53621 16.7366 11.7468C 16.6964 15.1796 15.4232 17.7988 12.6314 17.7988C 11.14 17.7988 9.93738 16.5973 9.93738 15.1261C 9.93738 13.6484 11.14 12.447 12.6314 12.447C 13.5095 12.447 14.2089 12.8637 14.6985 13.5111C 14.7899 13.6126 14.9401 13.58 14.9401 13.4499C 14.7927 10.485 12.8098 8.03091 8.87282 8.03091C 4.59645 8.03091 1.346 11.7681 1.33352 16.0103C 1.33352 17.6103 1.72246 19.1166 2.41338 20.4445C 4.3585 24.3162 7.19021 27.2377 10.9572 29.3914C 18.811 24.8428 22.0248 16.6424 22.0248 10.9319C 22.0248 5.04176 17.2274 0 10.9971 0Z"/>
<path id="path12_fill" fill-rule="evenodd" d="M 41.2515 12.6886C 37.6407 5.08968 29.9697 0 21.2463 0C 12.33 0 4.65985 5.27127 1.15734 12.8714C 1.15734 12.8714 0.66412 13.9246 0.259071 15.269C -1.1123 19.8224 3.37746 20.9401 3.99953 16.8908C 4.26043 15.2159 3.95041 14.2391 4.90988 12.8714C 6.41371 11.0615 8.6749 9.91281 11.2127 9.91281C 15.7161 9.91281 18.901 13.272 19.4224 16.7741C 18.8901 16.8908 18.4742 16.4045 18.0989 16.0602C 17.65 15.6535 16.1236 14.1481 13.3406 14.1481C 10.2387 14.1481 7.95177 16.1097 7.00921 18.4905C 6.93995 18.6113 6.98505 18.7534 7.17187 18.6797L 7.17187 18.6817C 7.96868 18.3544 8.85568 18.1197 9.82884 18.0593C 11.5235 17.9526 14.251 18.2682 16.5403 20.7465C 17.8948 22.2092 18.963 21.8944 18.963 21.8944C 19.0834 19.9372 19.8697 17.9264 20.0191 17.5665C 22.4771 11.6949 19.8496 8.11425 14.172 7.84449C 11.9362 7.739 10.1783 8.39167 9.14477 8.72948C 9.14477 8.72948 8.62699 8.94851 8.49975 8.66103C 8.36689 8.36711 8.90802 8.07117 8.90802 8.07117C 10.6728 7.10002 12.5917 6.64062 14.6113 6.64062C 19.947 6.64062 21.4685 9.27142 22.2742 10.4423C 24.5088 13.6951 29.1133 10.9226 25.5488 7.45917C 23.6995 5.96742 21.3731 4.50385 16.0552 4.49781C 13.1107 4.48653 10.0942 5.67672 7.84386 7.1886C 7.84386 7.1886 7.34017 7.54332 7.13805 7.27477C 6.9323 7.00983 7.41426 6.63659 7.41909 6.63659C 10.0825 4.56022 13.7267 3.11396 17.3698 3.11396C 21.5076 3.11396 25.0898 4.45795 28.0174 6.85562C 30.1018 8.56279 31.9893 9.4212 34.1229 9.71875C 36.9675 10.1194 38.965 11.0937 41.0538 12.8331C 41.1605 12.9036 41.2894 12.8416 41.2515 12.6886Z"/>
<path id="path13_fill" fill-rule="evenodd" d="M 12.2221 11.7194C 12.2346 11.7323 12.2406 11.7404 12.2438 11.7516C 12.3038 11.8672 12.4355 11.8672 12.4665 11.7154C 13.3652 8.30188 11.8855 4.91252 8.95474 4.01989L 3.39278 2.32078C 1.81607 1.84245 0.997114 1.11127 0.495837 0.124417C 0.495837 0.116767 0.495837 0.116767 0.495837 0.116767C 0.489797 0.107909 0.489797 0.10348 0.480939 0.0994537C 0.420545 -0.026973 0.284455 -0.0438835 0.252244 0.113143C -0.627104 3.51579 0.851361 6.88301 3.77286 7.77363L 8.71477 9.26538C 10.5645 9.85323 11.5477 10.547 12.2189 11.7094C 12.2189 11.7094 12.2221 11.7114 12.2221 11.7194Z"/>
</defs>
</svg>
