<svg id="Layer_1" xmlns="http://www.w3.org/2000/svg" viewBox="0 0 417.6 159.5"><style>.st0{fill:#fff}</style><path class="st0" d="M326.9 64.5c0-1.7 1.2-2.8 2.4-.3 1.1 2.4 2.4 6.2 4.2 6.7 1.5.4 2.5-.1 3.7-1.7 1.4-1.8 2.7-3.8 3.9-3.4 1.1.4.7 2.9.3 5.5-.3 2.3-.4 4.4.7 5.7 1.4 1.7 5.5 1.4 9.2 1.3 5.4-.2 10.6-.4 11.1 1.3.5 1.8-4 3.7-8.3 5.9-2.9 1.5-5.2 3-6.2 4.9-1.5 2.9.9 6.7 2.8 10.3 1.9 3.5.2 4.7-1.9 3.4-14-8.8-22-23-21.9-39.6M395 44.3c-13.2 0-22 10.8-22.6 19.6 0 0 1.5 0 2.9-2.6 3.7-6.6 11.4-9.7 18.9-8.4 8.7 1.5 12.6 8.9 12.5 15.5-.1 7-2.7 12.4-8.4 12.4-3.1 0-5.5-2.5-5.5-5.5s2.5-5.5 5.5-5.5c1.8 0 3.2.9 4.2 2.2.2.2.5.1.5-.1-.3-6.1-4.4-11.1-12.4-11.1-8.8 0-15.4 7.7-15.5 16.4 0 3.3.8 6.4 2.2 9.1 4 7.9 9.8 13.9 17.5 18.3 16.1-9.3 22.7-26.1 22.7-37.9.1-12-9.8-22.4-22.5-22.4"/><path class="st0" d="M413.3 46c-7.4-15.6-23.1-26-41-26-18.3 0-34 10.8-41.2 26.4 0 0-1 2.2-1.8 4.9-2.8 9.3 6.4 11.6 7.7 3.3.5-3.4-.1-5.4 1.9-8.2 3.1-3.7 7.7-6.1 12.9-6.1 9.2 0 15.8 6.9 16.8 14.1-1.1.2-1.9-.8-2.7-1.5-.9-.8-4.1-3.9-9.8-3.9-6.4 0-11.1 4-13 8.9-.1.2-.1.5.3.4 1.6-.7 3.5-1.2 5.5-1.3 3.5-.2 9.1.4 13.8 5.5 2.8 3 5 2.4 5 2.4.2-4 1.9-8.1 2.2-8.9 5-12-.3-19.4-12-19.9-4.6-.2-8.2 1.1-10.3 1.8 0 0-1.1.4-1.3-.1-.3-.6.8-1.2.8-1.2 3.6-2 7.6-2.9 11.7-2.9 10.9 0 14.1 5.4 15.7 7.8 4.6 6.7 14 1 6.7-6.1-3.8-3.1-8.6-6.1-19.5-6.1-6 0-12.2 2.4-16.8 5.5 0 0-1 .7-1.4.2-.4-.5.6-1.3.6-1.3 5.5-4.3 12.9-7.2 20.4-7.2 8.5 0 15.8 2.8 21.8 7.7 4.3 3.5 8.1 5.3 12.5 5.9 5.8.8 9.9 2.8 14.2 6.4.1-.1.4-.2.3-.5m-16.7-22c0 .1 0 .1 0 0 .2.3.4.3.5 0 1.8-7-1.2-14-7.2-15.8l-11.4-3.5c-3.2-1-4.9-2.5-5.9-4.5-.1-.3-.4-.3-.5 0-1.8 7 1.2 13.9 7.2 15.7l10.1 3.1c3.8 1.2 5.8 2.6 7.2 5M19.8 118.1C8.7 118.1 0 127.3 0 138.9c0 11.5 8.7 20.5 19.8 20.5 11.1 0 19.8-9 19.8-20.5.1-11.6-8.7-20.8-19.8-20.8m0 33.3c-6.3 0-11.5-5.6-11.5-12.5 0-7.1 5.2-12.8 11.5-12.8 6.4 0 11.6 5.7 11.6 12.8 0 6.9-5.2 12.5-11.6 12.5m61.5-5.2l.5-1.4H73l-.3.6c-1.9 3.8-5.5 6-9.9 6-6.3 0-11.5-5.6-11.5-12.6s5.2-12.7 11.5-12.7c4.3 0 7.9 2.2 9.9 6l.3.6h8.7l-.5-1.4c-2.7-8.1-9.8-13.2-18.4-13.2-10.9 0-19.7 9.3-19.7 20.7 0 11.3 8.9 20.6 19.7 20.6 8.8 0 15.8-5.1 18.5-13.2m23.6 13.2c9.1 0 15.9-4.8 18.6-13.2l.5-1.4h-8.6l-.3.6c-1.9 4.1-5.4 6.3-10.1 6.3-5 0-10.5-3.5-11.7-10.2h31.2v-1c0-6.6-2.2-12.4-6.3-16.6-3.7-3.7-8.5-5.7-13.6-5.7-10.9 0-19.8 9.3-19.8 20.7-.1 11.4 8.8 20.5 20.1 20.5m-.3-33.6c4.7 0 8.9 3.2 10.6 8H93.8c1.9-5.2 6.7-8 10.8-8m43.2-7.7c-11.1 0-19.8 9.1-19.8 20.7s8.6 20.6 19.7 20.6c4.4 0 8.7-1.8 11.8-4.9v4h8.1v-19.7c0-11.6-8.7-20.7-19.8-20.7m0 7.8c6.3 0 11.6 5.9 11.6 12.9 0 7.1-5.2 12.8-11.6 12.8-6.5 0-11.6-5.6-11.6-12.8.1-7.1 5.2-12.9 11.6-12.9m34.1 8.6c0-5.1 3.4-8.6 8.4-8.6s8.4 3.5 8.4 8.6v24h8.2v-23.7c0-9.8-6.8-16.6-16.6-16.6s-16.6 6.8-16.6 16.6v23.7h8.2v-24zm94.7 9.6c0 4.4-2.8 7.3-7.1 7.3-4.2 0-7.1-2.9-7.1-7.3v-16.4h-8.3v16.4c0 4.4-2.8 7.3-7.1 7.3-4.2 0-7.1-2.9-7.1-7.3v-25h-8.3v25c0 8.9 6.4 15.3 15.3 15.3 4.7 0 8.6-1.9 11.2-5.3 2.6 3.4 6.5 5.3 11.2 5.3 8.9 0 15.3-6.4 15.3-15.3v-25h-8.3v25zm17.7-24.9h8.3v39.4h-8.3zm32.6 14.7c-7.7-1.2-8.5-2.1-8.5-3.7 0-2.3 3.3-4.2 7.4-4.2 4.3 0 7.2 1.9 8 5.2l.2.8h8.3l-.1-1.2c-.8-7.8-7.1-12.6-16.3-12.6-10.8 0-15.7 6.3-15.7 12.1 0 8.6 7.6 10.4 15.5 11.6 9.2 1.2 9.2 3.1 9.2 4.8 0 2.5-2.9 5-8.3 5-5 0-8.7-2.4-9.4-6.2l-.2-.9h-8.3l.2 1.2c1.1 8.3 8 13.7 17.7 13.7 9.8 0 16.3-5.3 16.3-13.2 0-9.9-8.9-11.3-16-12.4m59.3 6.6c0-6.6-2.2-12.4-6.3-16.6-3.7-3.7-8.5-5.7-13.6-5.7-10.9 0-19.8 9.3-19.8 20.7 0 11.5 8.9 20.5 20.2 20.5 9.1 0 15.9-4.8 18.6-13.2l.5-1.4h-8.6l-.3.6c-1.9 4.1-5.4 6.3-10.1 6.3-5 0-10.5-3.5-11.7-10.2h31.2l-.1-1zm-19.9-14.6c4.7 0 8.9 3.2 10.6 8h-21.4c2-5.2 6.8-8 10.8-8m30.6 33.5c-3.2 0-5.8-2.6-5.8-5.8 0-3.2 2.6-5.8 5.8-5.8 3.2 0 5.8 2.6 5.8 5.8 0 3.2-2.6 5.8-5.8 5.8m0-10.5c-2.6 0-4.7 2.1-4.7 4.7s2.1 4.7 4.7 4.7 4.7-2.1 4.7-4.7c-.1-2.6-2.1-4.7-4.7-4.7m2.7 7.6h-1.3l-1.1-2.1h-1.4v2.1h-1.1v-5.9h2.8c1.2 0 2 .8 2 1.9 0 .8-.5 1.5-1.2 1.8l1.3 2.2zm-2-3.1c.5 0 .9-.2.9-.9s-.4-.9-.9-.9h-1.7v1.8h1.7z"/></svg>