<svg width="23" height="27" viewBox="0 0 23 27" xmlns="http://www.w3.org/2000/svg"><title>logo</title><path d="M17.165 11.252c3.223 0 5.705 2.595 5.705 5.627 0 2.94-1.663 7.16-5.725 9.502-1.949-1.109-3.414-2.612-4.42-4.605a4.908 4.908 0 0 1-.559-2.283c.007-2.183 1.688-4.107 3.9-4.107 2.037 0 3.063 1.263 3.139 2.79 0 .066-.078.083-.125.03-.253-.333-.615-.547-1.07-.547-.77 0-1.393.618-1.393 1.379 0 .757.622 1.376 1.394 1.376 1.444 0 2.102-1.348 2.123-3.116.016-1.652-.976-3.522-3.16-3.892-1.883-.313-3.81.46-4.754 2.119-.368.643-.743.646-.743.646 0-.003 0 .001 0 0 .147-2.22 2.355-4.92 5.688-4.92zm4.621.419c.02.079-.047.11-.102.074-1.08-.895-2.114-1.397-3.585-1.603-1.104-.153-2.08-.595-3.159-1.474-1.514-1.234-3.367-1.926-5.508-1.926-1.884 0-3.77.745-5.147 1.814-.003 0-.252.192-.146.328.105.138.366-.044.366-.044 1.164-.778 2.724-1.391 4.247-1.385 2.751.003 3.955.756 4.911 1.524 1.844 1.783-.538 3.21-1.694 1.536-.416-.603-1.204-1.957-3.964-1.957a6.058 6.058 0 0 0-2.95.736s-.28.152-.211.304c.066.148.334.035.334.035.534-.174 1.444-.51 2.6-.455 2.937.138 4.296 1.981 3.025 5.004-.077.185-.484 1.22-.547 2.228 0 0-.552.162-1.253-.591-1.184-1.276-2.595-1.438-3.472-1.383a4.319 4.319 0 0 0-1.374.32v-.001c-.097.038-.12-.035-.084-.097.487-1.226 1.67-2.236 3.275-2.236 1.44 0 2.23.775 2.462.984.194.178.409.428.684.368-.27-1.803-1.917-3.532-4.247-3.532a4.23 4.23 0 0 0-3.26 1.523c-.496.704-.336 1.207-.471 2.069-.322 2.084-2.644 1.51-1.935-.835.21-.692.465-1.234.465-1.234a11.437 11.437 0 0 1 10.391-6.626c4.513 0 8.481 2.62 10.35 6.532zm-4.209-5.508c0-.004-.002-.005-.002-.005-.347-.598-.856-.955-1.812-1.258l-2.557-.768C11.695 3.674 10.93 1.94 11.385.19c.017-.08.087-.072.118-.007.005.002.005.004.008.009v.004c.26.508.683.884 1.499 1.13l2.877.875c1.516.46 2.281 2.204 1.816 3.961-.016.078-.084.078-.115.019a.039.039 0 0 0-.011-.017zM.263 16.394c0-.419.305-.692.594-.084.279.603.602 1.558 1.048 1.68.38.103.62-.027.939-.424.352-.44.686-.95.98-.842.28.1.171.738.085 1.374-.073.57-.1 1.098.187 1.44.35.42 1.378.35 2.313.325 1.354-.04 2.68-.104 2.793.336.114.454-1.013.93-2.097 1.483-.743.376-1.308.76-1.558 1.228-.383.716.237 1.688.712 2.577.475.88.063 1.185-.485.843C2.256 24.137.23 20.566.264 16.394z" fill="#FFF" fill-rule="evenodd"/></svg>