G04 #@! TF.FileFunction,Copper,L2,Bot,Signal*
%FSLAX46Y46*%
G04 Gerber Fmt 4.6, Leading zero omitted, Abs format (unit mm)*
G04 Created by KiCad (PCBNEW 4.0.7) date 05/06/18 20:10:14*
%MOMM*%
%LPD*%
G01*
G04 APERTURE LIST*
%ADD10C,0.100000*%
%ADD11R,1.800000X1.800000*%
%ADD12C,1.800000*%
%ADD13C,10.160000*%
%ADD14R,1.600000X1.600000*%
%ADD15O,1.600000X1.600000*%
%ADD16C,0.600000*%
%ADD17C,0.250000*%
%ADD18C,0.254000*%
G04 APERTURE END LIST*
D10*
D11*
X153670000Y-101600000D03*
D12*
X151130000Y-101600000D03*
D13*
X160020000Y-135890000D03*
X189990000Y-135890000D03*
X175010000Y-135890000D03*
D14*
X175260000Y-104140000D03*
D15*
X182880000Y-96520000D03*
X177800000Y-104140000D03*
X180340000Y-96520000D03*
X180340000Y-104140000D03*
X177800000Y-96520000D03*
X182880000Y-104140000D03*
X175260000Y-96520000D03*
D16*
X166370000Y-97790000D03*
D17*
X189990000Y-135890000D02*
X184150000Y-135890000D01*
X166370000Y-97790000D02*
X166370000Y-118110000D01*
X184150000Y-135890000D02*
X166370000Y-118110000D01*
D18*
G36*
X215190000Y-146610000D02*
X144220000Y-146610000D01*
X144220000Y-137041917D01*
X154202392Y-137041917D01*
X155086051Y-139180535D01*
X156720859Y-140818198D01*
X158857931Y-141705588D01*
X161171917Y-141707608D01*
X163310535Y-140823949D01*
X164948198Y-139189141D01*
X165835588Y-137052069D01*
X165835596Y-137041917D01*
X169192392Y-137041917D01*
X170076051Y-139180535D01*
X171710859Y-140818198D01*
X173847931Y-141705588D01*
X176161917Y-141707608D01*
X178300535Y-140823949D01*
X179139117Y-139986828D01*
X186072777Y-139986828D01*
X186668556Y-140677641D01*
X188753537Y-141584265D01*
X191026758Y-141623989D01*
X193142142Y-140790765D01*
X193311444Y-140677641D01*
X193907223Y-139986828D01*
X189990000Y-136069605D01*
X186072777Y-139986828D01*
X179139117Y-139986828D01*
X179938198Y-139189141D01*
X180825588Y-137052069D01*
X180825697Y-136926758D01*
X184256011Y-136926758D01*
X185089235Y-139042142D01*
X185202359Y-139211444D01*
X185893172Y-139807223D01*
X189810395Y-135890000D01*
X190169605Y-135890000D01*
X194086828Y-139807223D01*
X194777641Y-139211444D01*
X195684265Y-137126463D01*
X195723989Y-134853242D01*
X194890765Y-132737858D01*
X194777641Y-132568556D01*
X194086828Y-131972777D01*
X190169605Y-135890000D01*
X189810395Y-135890000D01*
X185893172Y-131972777D01*
X185202359Y-132568556D01*
X184295735Y-134653537D01*
X184256011Y-136926758D01*
X180825697Y-136926758D01*
X180827608Y-134738083D01*
X179943949Y-132599465D01*
X179139062Y-131793172D01*
X186072777Y-131793172D01*
X189990000Y-135710395D01*
X193907223Y-131793172D01*
X193311444Y-131102359D01*
X191226463Y-130195735D01*
X188953242Y-130156011D01*
X186837858Y-130989235D01*
X186668556Y-131102359D01*
X186072777Y-131793172D01*
X179139062Y-131793172D01*
X178309141Y-130961802D01*
X176172069Y-130074412D01*
X173858083Y-130072392D01*
X171719465Y-130956051D01*
X170081802Y-132590859D01*
X169194412Y-134727931D01*
X169192392Y-137041917D01*
X165835596Y-137041917D01*
X165837608Y-134738083D01*
X164953949Y-132599465D01*
X163319141Y-130961802D01*
X161182069Y-130074412D01*
X158868083Y-130072392D01*
X156729465Y-130956051D01*
X155091802Y-132590859D01*
X154204412Y-134727931D01*
X154202392Y-137041917D01*
X144220000Y-137041917D01*
X144220000Y-103340000D01*
X173708970Y-103340000D01*
X173708970Y-104940000D01*
X173760332Y-105212967D01*
X173921656Y-105463671D01*
X174167807Y-105631859D01*
X174460000Y-105691030D01*
X176060000Y-105691030D01*
X176332967Y-105639668D01*
X176583671Y-105478344D01*
X176728353Y-105266595D01*
X177211969Y-105589737D01*
X177800000Y-105706704D01*
X178388031Y-105589737D01*
X178886540Y-105256644D01*
X179070000Y-104982077D01*
X179253460Y-105256644D01*
X179751969Y-105589737D01*
X180340000Y-105706704D01*
X180928031Y-105589737D01*
X181426540Y-105256644D01*
X181610000Y-104982077D01*
X181793460Y-105256644D01*
X182291969Y-105589737D01*
X182880000Y-105706704D01*
X183468031Y-105589737D01*
X183966540Y-105256644D01*
X184299633Y-104758135D01*
X184416600Y-104170104D01*
X184416600Y-104109896D01*
X184299633Y-103521865D01*
X183966540Y-103023356D01*
X183468031Y-102690263D01*
X182880000Y-102573296D01*
X182291969Y-102690263D01*
X181793460Y-103023356D01*
X181610000Y-103297923D01*
X181426540Y-103023356D01*
X180928031Y-102690263D01*
X180340000Y-102573296D01*
X179751969Y-102690263D01*
X179253460Y-103023356D01*
X179070000Y-103297923D01*
X178886540Y-103023356D01*
X178388031Y-102690263D01*
X177800000Y-102573296D01*
X177211969Y-102690263D01*
X176726119Y-103014897D01*
X176598344Y-102816329D01*
X176352193Y-102648141D01*
X176060000Y-102588970D01*
X174460000Y-102588970D01*
X174187033Y-102640332D01*
X173936329Y-102801656D01*
X173768141Y-103047807D01*
X173708970Y-103340000D01*
X144220000Y-103340000D01*
X144220000Y-101924112D01*
X149493116Y-101924112D01*
X149741749Y-102525848D01*
X150201730Y-102986633D01*
X150803032Y-103236315D01*
X151454112Y-103236884D01*
X152055848Y-102988251D01*
X152149016Y-102895245D01*
X152231656Y-103023671D01*
X152477807Y-103191859D01*
X152770000Y-103251030D01*
X154570000Y-103251030D01*
X154842967Y-103199668D01*
X155093671Y-103038344D01*
X155261859Y-102792193D01*
X155321030Y-102500000D01*
X155321030Y-100700000D01*
X155269668Y-100427033D01*
X155108344Y-100176329D01*
X154862193Y-100008141D01*
X154570000Y-99948970D01*
X152770000Y-99948970D01*
X152497033Y-100000332D01*
X152246329Y-100161656D01*
X152148938Y-100304193D01*
X152058270Y-100213367D01*
X151456968Y-99963685D01*
X150805888Y-99963116D01*
X150204152Y-100211749D01*
X149743367Y-100671730D01*
X149493685Y-101273032D01*
X149493116Y-101924112D01*
X144220000Y-101924112D01*
X144220000Y-96869041D01*
X173868086Y-96869041D01*
X174107611Y-97375134D01*
X174522577Y-97751041D01*
X174910961Y-97911904D01*
X175133000Y-97789915D01*
X175133000Y-96647000D01*
X173989371Y-96647000D01*
X173868086Y-96869041D01*
X144220000Y-96869041D01*
X144220000Y-96170959D01*
X173868086Y-96170959D01*
X173989371Y-96393000D01*
X175133000Y-96393000D01*
X175133000Y-95250085D01*
X175387000Y-95250085D01*
X175387000Y-96393000D01*
X175407000Y-96393000D01*
X175407000Y-96647000D01*
X175387000Y-96647000D01*
X175387000Y-97789915D01*
X175609039Y-97911904D01*
X175997423Y-97751041D01*
X176412389Y-97375134D01*
X176464771Y-97264455D01*
X176713460Y-97636644D01*
X177211969Y-97969737D01*
X177800000Y-98086704D01*
X178388031Y-97969737D01*
X178886540Y-97636644D01*
X179070000Y-97362077D01*
X179253460Y-97636644D01*
X179751969Y-97969737D01*
X180340000Y-98086704D01*
X180928031Y-97969737D01*
X181426540Y-97636644D01*
X181610000Y-97362077D01*
X181793460Y-97636644D01*
X182291969Y-97969737D01*
X182880000Y-98086704D01*
X183468031Y-97969737D01*
X183966540Y-97636644D01*
X184299633Y-97138135D01*
X184416600Y-96550104D01*
X184416600Y-96489896D01*
X184299633Y-95901865D01*
X183966540Y-95403356D01*
X183468031Y-95070263D01*
X182880000Y-94953296D01*
X182291969Y-95070263D01*
X181793460Y-95403356D01*
X181610000Y-95677923D01*
X181426540Y-95403356D01*
X180928031Y-95070263D01*
X180340000Y-94953296D01*
X179751969Y-95070263D01*
X179253460Y-95403356D01*
X179070000Y-95677923D01*
X178886540Y-95403356D01*
X178388031Y-95070263D01*
X177800000Y-94953296D01*
X177211969Y-95070263D01*
X176713460Y-95403356D01*
X176464771Y-95775545D01*
X176412389Y-95664866D01*
X175997423Y-95288959D01*
X175609039Y-95128096D01*
X175387000Y-95250085D01*
X175133000Y-95250085D01*
X174910961Y-95128096D01*
X174522577Y-95288959D01*
X174107611Y-95664866D01*
X173868086Y-96170959D01*
X144220000Y-96170959D01*
X144220000Y-92150000D01*
X215190000Y-92150000D01*
X215190000Y-146610000D01*
X215190000Y-146610000D01*
G37*
X215190000Y-146610000D02*
X144220000Y-146610000D01*
X144220000Y-137041917D01*
X154202392Y-137041917D01*
X155086051Y-139180535D01*
X156720859Y-140818198D01*
X158857931Y-141705588D01*
X161171917Y-141707608D01*
X163310535Y-140823949D01*
X164948198Y-139189141D01*
X165835588Y-137052069D01*
X165835596Y-137041917D01*
X169192392Y-137041917D01*
X170076051Y-139180535D01*
X171710859Y-140818198D01*
X173847931Y-141705588D01*
X176161917Y-141707608D01*
X178300535Y-140823949D01*
X179139117Y-139986828D01*
X186072777Y-139986828D01*
X186668556Y-140677641D01*
X188753537Y-141584265D01*
X191026758Y-141623989D01*
X193142142Y-140790765D01*
X193311444Y-140677641D01*
X193907223Y-139986828D01*
X189990000Y-136069605D01*
X186072777Y-139986828D01*
X179139117Y-139986828D01*
X179938198Y-139189141D01*
X180825588Y-137052069D01*
X180825697Y-136926758D01*
X184256011Y-136926758D01*
X185089235Y-139042142D01*
X185202359Y-139211444D01*
X185893172Y-139807223D01*
X189810395Y-135890000D01*
X190169605Y-135890000D01*
X194086828Y-139807223D01*
X194777641Y-139211444D01*
X195684265Y-137126463D01*
X195723989Y-134853242D01*
X194890765Y-132737858D01*
X194777641Y-132568556D01*
X194086828Y-131972777D01*
X190169605Y-135890000D01*
X189810395Y-135890000D01*
X185893172Y-131972777D01*
X185202359Y-132568556D01*
X184295735Y-134653537D01*
X184256011Y-136926758D01*
X180825697Y-136926758D01*
X180827608Y-134738083D01*
X179943949Y-132599465D01*
X179139062Y-131793172D01*
X186072777Y-131793172D01*
X189990000Y-135710395D01*
X193907223Y-131793172D01*
X193311444Y-131102359D01*
X191226463Y-130195735D01*
X188953242Y-130156011D01*
X186837858Y-130989235D01*
X186668556Y-131102359D01*
X186072777Y-131793172D01*
X179139062Y-131793172D01*
X178309141Y-130961802D01*
X176172069Y-130074412D01*
X173858083Y-130072392D01*
X171719465Y-130956051D01*
X170081802Y-132590859D01*
X169194412Y-134727931D01*
X169192392Y-137041917D01*
X165835596Y-137041917D01*
X165837608Y-134738083D01*
X164953949Y-132599465D01*
X163319141Y-130961802D01*
X161182069Y-130074412D01*
X158868083Y-130072392D01*
X156729465Y-130956051D01*
X155091802Y-132590859D01*
X154204412Y-134727931D01*
X154202392Y-137041917D01*
X144220000Y-137041917D01*
X144220000Y-103340000D01*
X173708970Y-103340000D01*
X173708970Y-104940000D01*
X173760332Y-105212967D01*
X173921656Y-105463671D01*
X174167807Y-105631859D01*
X174460000Y-105691030D01*
X176060000Y-105691030D01*
X176332967Y-105639668D01*
X176583671Y-105478344D01*
X176728353Y-105266595D01*
X177211969Y-105589737D01*
X177800000Y-105706704D01*
X178388031Y-105589737D01*
X178886540Y-105256644D01*
X179070000Y-104982077D01*
X179253460Y-105256644D01*
X179751969Y-105589737D01*
X180340000Y-105706704D01*
X180928031Y-105589737D01*
X181426540Y-105256644D01*
X181610000Y-104982077D01*
X181793460Y-105256644D01*
X182291969Y-105589737D01*
X182880000Y-105706704D01*
X183468031Y-105589737D01*
X183966540Y-105256644D01*
X184299633Y-104758135D01*
X184416600Y-104170104D01*
X184416600Y-104109896D01*
X184299633Y-103521865D01*
X183966540Y-103023356D01*
X183468031Y-102690263D01*
X182880000Y-102573296D01*
X182291969Y-102690263D01*
X181793460Y-103023356D01*
X181610000Y-103297923D01*
X181426540Y-103023356D01*
X180928031Y-102690263D01*
X180340000Y-102573296D01*
X179751969Y-102690263D01*
X179253460Y-103023356D01*
X179070000Y-103297923D01*
X178886540Y-103023356D01*
X178388031Y-102690263D01*
X177800000Y-102573296D01*
X177211969Y-102690263D01*
X176726119Y-103014897D01*
X176598344Y-102816329D01*
X176352193Y-102648141D01*
X176060000Y-102588970D01*
X174460000Y-102588970D01*
X174187033Y-102640332D01*
X173936329Y-102801656D01*
X173768141Y-103047807D01*
X173708970Y-103340000D01*
X144220000Y-103340000D01*
X144220000Y-101924112D01*
X149493116Y-101924112D01*
X149741749Y-102525848D01*
X150201730Y-102986633D01*
X150803032Y-103236315D01*
X151454112Y-103236884D01*
X152055848Y-102988251D01*
X152149016Y-102895245D01*
X152231656Y-103023671D01*
X152477807Y-103191859D01*
X152770000Y-103251030D01*
X154570000Y-103251030D01*
X154842967Y-103199668D01*
X155093671Y-103038344D01*
X155261859Y-102792193D01*
X155321030Y-102500000D01*
X155321030Y-100700000D01*
X155269668Y-100427033D01*
X155108344Y-100176329D01*
X154862193Y-100008141D01*
X154570000Y-99948970D01*
X152770000Y-99948970D01*
X152497033Y-100000332D01*
X152246329Y-100161656D01*
X152148938Y-100304193D01*
X152058270Y-100213367D01*
X151456968Y-99963685D01*
X150805888Y-99963116D01*
X150204152Y-100211749D01*
X149743367Y-100671730D01*
X149493685Y-101273032D01*
X149493116Y-101924112D01*
X144220000Y-101924112D01*
X144220000Y-96869041D01*
X173868086Y-96869041D01*
X174107611Y-97375134D01*
X174522577Y-97751041D01*
X174910961Y-97911904D01*
X175133000Y-97789915D01*
X175133000Y-96647000D01*
X173989371Y-96647000D01*
X173868086Y-96869041D01*
X144220000Y-96869041D01*
X144220000Y-96170959D01*
X173868086Y-96170959D01*
X173989371Y-96393000D01*
X175133000Y-96393000D01*
X175133000Y-95250085D01*
X175387000Y-95250085D01*
X175387000Y-96393000D01*
X175407000Y-96393000D01*
X175407000Y-96647000D01*
X175387000Y-96647000D01*
X175387000Y-97789915D01*
X175609039Y-97911904D01*
X175997423Y-97751041D01*
X176412389Y-97375134D01*
X176464771Y-97264455D01*
X176713460Y-97636644D01*
X177211969Y-97969737D01*
X177800000Y-98086704D01*
X178388031Y-97969737D01*
X178886540Y-97636644D01*
X179070000Y-97362077D01*
X179253460Y-97636644D01*
X179751969Y-97969737D01*
X180340000Y-98086704D01*
X180928031Y-97969737D01*
X181426540Y-97636644D01*
X181610000Y-97362077D01*
X181793460Y-97636644D01*
X182291969Y-97969737D01*
X182880000Y-98086704D01*
X183468031Y-97969737D01*
X183966540Y-97636644D01*
X184299633Y-97138135D01*
X184416600Y-96550104D01*
X184416600Y-96489896D01*
X184299633Y-95901865D01*
X183966540Y-95403356D01*
X183468031Y-95070263D01*
X182880000Y-94953296D01*
X182291969Y-95070263D01*
X181793460Y-95403356D01*
X181610000Y-95677923D01*
X181426540Y-95403356D01*
X180928031Y-95070263D01*
X180340000Y-94953296D01*
X179751969Y-95070263D01*
X179253460Y-95403356D01*
X179070000Y-95677923D01*
X178886540Y-95403356D01*
X178388031Y-95070263D01*
X177800000Y-94953296D01*
X177211969Y-95070263D01*
X176713460Y-95403356D01*
X176464771Y-95775545D01*
X176412389Y-95664866D01*
X175997423Y-95288959D01*
X175609039Y-95128096D01*
X175387000Y-95250085D01*
X175133000Y-95250085D01*
X174910961Y-95128096D01*
X174522577Y-95288959D01*
X174107611Y-95664866D01*
X173868086Y-96170959D01*
X144220000Y-96170959D01*
X144220000Y-92150000D01*
X215190000Y-92150000D01*
X215190000Y-146610000D01*
M02*
