G04 #@! TF.FileFunction,Legend,Top*
%FSLAX46Y46*%
G04 Gerber Fmt 4.6, Leading zero omitted, Abs format (unit mm)*
G04 Created by KiCad (PCBNEW 4.0.7) date 05/06/18 20:10:14*
%MOMM*%
%LPD*%
G01*
G04 APERTURE LIST*
%ADD10C,0.100000*%
%ADD11C,0.120000*%
%ADD12C,0.150000*%
G04 APERTURE END LIST*
D10*
D11*
X149410000Y-101599538D02*
G75*
G03X154960000Y-103144830I2990000J-462D01*
G01*
X149410000Y-101600462D02*
G75*
G02X154960000Y-100055170I2990000J462D01*
G01*
X154900000Y-101600000D02*
G75*
G03X154900000Y-101600000I-2500000J0D01*
G01*
X154960000Y-103145000D02*
X154960000Y-100055000D01*
X160020000Y-141140000D02*
X190020000Y-141140000D01*
X190020000Y-130640000D02*
X160020000Y-130640000D01*
X190020000Y-141140000D02*
G75*
G03X190020000Y-130640000I0J5250000D01*
G01*
X160020000Y-130640000D02*
G75*
G03X160020000Y-141140000I0J-5250000D01*
G01*
X204470000Y-107190000D02*
X204470000Y-111250000D01*
X209550000Y-107190000D02*
X209550000Y-111250000D01*
X156970000Y-118110000D02*
X152910000Y-118110000D01*
X156970000Y-123190000D02*
X152910000Y-123190000D01*
X173930000Y-99330000D02*
G75*
G02X173930000Y-101330000I0J-1000000D01*
G01*
X173930000Y-101330000D02*
X173930000Y-102980000D01*
X173930000Y-102980000D02*
X184210000Y-102980000D01*
X184210000Y-102980000D02*
X184210000Y-97680000D01*
X184210000Y-97680000D02*
X173930000Y-97680000D01*
X173930000Y-97680000D02*
X173930000Y-99330000D01*
D12*
X151661905Y-106012381D02*
X151661905Y-105012381D01*
X151900000Y-105012381D01*
X152042858Y-105060000D01*
X152138096Y-105155238D01*
X152185715Y-105250476D01*
X152233334Y-105440952D01*
X152233334Y-105583810D01*
X152185715Y-105774286D01*
X152138096Y-105869524D01*
X152042858Y-105964762D01*
X151900000Y-106012381D01*
X151661905Y-106012381D01*
X153185715Y-106012381D02*
X152614286Y-106012381D01*
X152900000Y-106012381D02*
X152900000Y-105012381D01*
X152804762Y-105155238D01*
X152709524Y-105250476D01*
X152614286Y-105298095D01*
X167436667Y-129092381D02*
X167436667Y-129806667D01*
X167389047Y-129949524D01*
X167293809Y-130044762D01*
X167150952Y-130092381D01*
X167055714Y-130092381D01*
X168436667Y-130092381D02*
X167865238Y-130092381D01*
X168150952Y-130092381D02*
X168150952Y-129092381D01*
X168055714Y-129235238D01*
X167960476Y-129330476D01*
X167865238Y-129378095D01*
X210822381Y-109386666D02*
X210346190Y-109720000D01*
X210822381Y-109958095D02*
X209822381Y-109958095D01*
X209822381Y-109577142D01*
X209870000Y-109481904D01*
X209917619Y-109434285D01*
X210012857Y-109386666D01*
X210155714Y-109386666D01*
X210250952Y-109434285D01*
X210298571Y-109481904D01*
X210346190Y-109577142D01*
X210346190Y-109958095D01*
X210822381Y-108434285D02*
X210822381Y-109005714D01*
X210822381Y-108720000D02*
X209822381Y-108720000D01*
X209965238Y-108815238D01*
X210060476Y-108910476D01*
X210108095Y-109005714D01*
X154773334Y-124462381D02*
X154440000Y-123986190D01*
X154201905Y-124462381D02*
X154201905Y-123462381D01*
X154582858Y-123462381D01*
X154678096Y-123510000D01*
X154725715Y-123557619D01*
X154773334Y-123652857D01*
X154773334Y-123795714D01*
X154725715Y-123890952D01*
X154678096Y-123938571D01*
X154582858Y-123986190D01*
X154201905Y-123986190D01*
X155154286Y-123557619D02*
X155201905Y-123510000D01*
X155297143Y-123462381D01*
X155535239Y-123462381D01*
X155630477Y-123510000D01*
X155678096Y-123557619D01*
X155725715Y-123652857D01*
X155725715Y-123748095D01*
X155678096Y-123890952D01*
X155106667Y-124462381D01*
X155725715Y-124462381D01*
X172382381Y-101091905D02*
X173191905Y-101091905D01*
X173287143Y-101044286D01*
X173334762Y-100996667D01*
X173382381Y-100901429D01*
X173382381Y-100710952D01*
X173334762Y-100615714D01*
X173287143Y-100568095D01*
X173191905Y-100520476D01*
X172382381Y-100520476D01*
X173382381Y-99520476D02*
X173382381Y-100091905D01*
X173382381Y-99806191D02*
X172382381Y-99806191D01*
X172525238Y-99901429D01*
X172620476Y-99996667D01*
X172668095Y-100091905D01*
M02*
